<svg width="18" height="16" viewBox="0 0 18 16" fill="none" xmlns="http://www.w3.org/2000/svg">
<path d="M18 8C18 11.3137 13.4183 15 9 15C4.58172 15 0 11.3137 0 8C0 4.68629 4.58172 1 9 1C13.4183 1 18 4.68629 18 8Z" fill="#D9D9D9"/>
<path d="M12 8C12 9.65685 10.6569 11 9 11C7.34315 11 6 9.65685 6 8C6 6.34315 7.34315 5 9 5C10.6569 5 12 6.34315 12 8Z" fill="white"/>
<path d="M11 8C11 9.10457 10.1046 10 9 10C7.89543 10 7 9.10457 7 8C7 6.89543 7.89543 6 9 6C10.1046 6 11 6.89543 11 8Z" fill="#777777"/>
</svg>
