<svg width="18" height="17" viewBox="0 0 18 17" fill="none" xmlns="http://www.w3.org/2000/svg">
<path d="M18 9C18 12.3137 13.4183 16 9 16C4.58172 16 0 12.3137 0 9C0 5.68629 4.58172 2 9 2C13.4183 2 18 5.68629 18 9Z" fill="#D9D9D9"/>
<circle cx="9" cy="9" r="3" fill="white"/>
<circle cx="9" cy="9" r="2" fill="#777777"/>
<path d="M17.4708 0.1875C17.2208 -0.0625 16.8125 -0.0625 16.5625 0.1875L1.1875 15.5708C0.9375 15.8208 0.9375 16.2292 1.1875 16.4792C1.3125 16.5958 1.47083 16.6625 1.6375 16.6625C1.80417 16.6625 1.9625 16.5958 2.0875 16.4708L17.4708 1.0875C17.7292 0.8375 17.7292 0.4375 17.4708 0.1875Z" fill="white"/>
<path d="M16.3666 1.36457L1.6341 16.1363" stroke="#5A5A5A" stroke-linecap="round"/>
</svg>
